<svg width="83" height="34" viewBox="0 0 83 34" fill="none" xmlns="http://www.w3.org/2000/svg">
<path d="M13.2623 17.4696C13.2623 13.8631 11.8937 11.9846 9.56266 11.9846C7.22277 11.9846 5.86298 13.8631 5.86298 17.4696C5.86298 21.0761 7.2316 22.9547 9.56266 22.9547C11.9026 22.9547 13.2623 21.0761 13.2623 17.4696ZM19.1606 17.4696C19.1606 23.5306 16.0349 27.2789 11.1432 27.2789C8.48542 27.2789 6.54287 25.8345 5.81883 24.8598H5.74819V33.0829H0V8.22743H5.74819V10.0706H5.82766C6.54287 9.09583 8.48542 7.65146 11.152 7.65146C16.0349 7.65146 19.1606 11.4086 19.1606 17.4696Z" fill="#F06384"/>
<path d="M19.8049 26.7029H25.5531V8.22746H19.8049V26.7029ZM19.8049 6.0299H25.5531V0.908157H19.8049V6.0299Z" fill="#F06384"/>
<path d="M26.136 17.4696C26.136 11.7365 29.8003 7.62489 35.4867 7.62489C40.8111 7.62489 44.0428 10.7972 44.5108 15.1303H38.7273C38.5507 13.615 37.8973 11.958 35.6015 11.958C33.2263 11.958 32.0431 14.0138 32.0431 17.4785C32.0431 20.9432 33.191 22.999 35.6015 22.999C37.8708 22.999 38.5507 21.4483 38.7273 19.7558H44.5019C44.2106 24.1598 40.9082 27.3321 35.6192 27.3321C29.8003 27.3144 26.136 23.2382 26.136 17.4696Z" fill="#F06384"/>
<path d="M45.1023 0.908157V26.7029H50.8593V21.2179L52.8725 19.0912L57.2168 26.7029H63.8744L56.6075 15.1569L63.1151 8.22746H57.0048L50.8593 15.086V0.908157H45.1023Z" fill="#F06384"/>
<path d="M63.4421 32.7285V28.3245C64.0514 28.3954 64.5193 28.4309 65.1639 28.4309C66.2765 28.4309 67.8923 28.3954 68.3956 26.446L61.0669 8.22748H67.0005L71.3183 20.385H71.3889L75.3447 8.22748H81.0222L74.3027 26.7384C72.7575 30.9563 70.9563 33.0918 66.8946 33.0918C65.6319 33.0918 64.6606 32.9767 63.4421 32.7285Z" fill="#F06384"/>
<path d="M81.5783 25.337C81.4282 25.975 80.969 26.3915 80.1832 26.3915C79.309 26.3915 78.7351 25.7712 78.7351 24.8231C78.7351 23.9015 79.3179 23.2192 80.2097 23.2192C81.1721 23.2192 81.5077 23.8572 81.5695 24.2737H80.8189C80.7395 24.0876 80.6423 23.8218 80.2009 23.8218C79.7505 23.8218 79.4768 24.1851 79.4768 24.7699C79.4768 25.4079 79.7505 25.7801 80.192 25.7801C80.5452 25.7801 80.713 25.6117 80.8189 25.3282H81.5783V25.337ZM77.8963 24.8319C77.8963 26.1966 78.8764 27.2067 80.1832 27.2067C81.4635 27.2067 82.4701 26.3383 82.4701 24.8319C82.4701 23.4142 81.4812 22.4483 80.1832 22.4483C78.894 22.4571 77.8963 23.3344 77.8963 24.8319ZM82.9999 24.8319C82.9999 26.4978 81.7902 27.7029 80.192 27.7029C78.5762 27.7029 77.3577 26.551 77.3577 24.8319C77.3577 23.1926 78.585 21.9609 80.192 21.9609C81.7902 21.9521 82.9999 23.1483 82.9999 24.8319Z" fill="#F06384"/>
</svg>
